<?xml version="1.0" standalone="no"?>
<!DOCTYPE svg PUBLIC "-//W3C//DTD SVG 20010904//EN"
 "http://www.w3.org/TR/2001/REC-SVG-20010904/DTD/svg10.dtd">
<svg version="1.0" xmlns="http://www.w3.org/2000/svg"
 width="300.000000pt" height="300.000000pt" viewBox="0 0 300.000000 300.000000"
 preserveAspectRatio="xMidYMid meet">
<metadata>
Created by potrace 1.11, written by Peter Selinger 2001-2013
</metadata>
<g transform="translate(0.000000,300.000000) scale(0.100000,-0.100000)"
fill="#000000" stroke="none">
<path d="M0 1500 l0 -1500 1500 0 1500 0 0 1500 0 1500 -1500 0 -1500 0 0
-1500z m1890 1204 l55 -19 3 -57 3 -57 -58 25 c-115 52 -221 40 -263 -28 -26
-43 -25 -84 3 -130 32 -53 377 -409 389 -402 18 11 57 111 69 179 l12 65 59 0
c41 0 58 -4 58 -13 0 -54 -63 -209 -113 -280 l-20 -29 89 -89 89 -89 -81 0
-80 0 -43 44 -44 45 -45 -31 c-108 -75 -247 -97 -372 -59 -62 19 -82 31 -131
80 -46 46 -61 70 -75 116 -34 118 0 230 99 326 l53 51 -28 55 c-67 132 -6 266
142 314 40 13 170 3 230 -17z m-1054 -378 l199 -384 3 384 2 384 65 0 65 0 0
-465 0 -465 -88 0 -89 0 -199 384 -199 384 -3 -384 -2 -384 -65 0 -65 0 0 465
0 465 88 0 88 0 200 -384z m1714 -81 l0 -465 -65 0 -65 0 0 465 0 465 65 0 65
0 0 -465z m-1190 -1422 c80 -211 147 -383 150 -383 3 0 70 172 150 381 80 210
150 383 156 386 6 2 36 3 67 1 l56 -3 -177 -460 -177 -460 -75 0 -74 0 -158
410 c-87 226 -167 434 -178 463 l-20 53 67 -3 67 -3 146 -382z"/>
<path d="M1574 2238 c-108 -117 -93 -270 33 -345 42 -24 58 -28 129 -28 70 0
88 4 139 30 32 17 60 35 61 40 2 6 -70 86 -159 179 l-162 168 -41 -44z"/>
</g>
</svg>
